<mxfile host="app.diagrams.net" agent="Mozilla/5.0 (Windows NT 10.0; Win64; x64) AppleWebKit/537.36 (KHTML, like Gecko) Chrome/131.0.0.0 Safari/537.36" version="25.0.1">
  <diagram name="Page-1" id="XauIgVVNs74x4HnEOfvZ">
    <mxGraphModel>
      <root>
        <mxCell id="0" />
        <mxCell id="1" parent="0" />
        <mxCell id="2" value="Notification" style="whiteSpace=wrap;strokeWidth=2;" vertex="1" parent="1">
          <mxGeometry x="39" y="8" width="117" height="35" as="geometry" />
        </mxCell>
        <mxCell id="3" value="Approval" style="whiteSpace=wrap;strokeWidth=2;" vertex="1" parent="1">
          <mxGeometry x="758" y="119" width="130" height="191" as="geometry" />
        </mxCell>
        <mxCell id="4" value="Request" style="whiteSpace=wrap;strokeWidth=2;" vertex="1" parent="1">
          <mxGeometry x="8" y="78" width="527" height="238" as="geometry" />
        </mxCell>
        <mxCell id="5" value="Employee" style="whiteSpace=wrap;strokeWidth=2;" vertex="1" parent="1">
          <mxGeometry x="33" y="195" width="130" height="49" as="geometry" />
        </mxCell>
        <mxCell id="6" value="Manager" style="rhombus;strokeWidth=2;whiteSpace=wrap;" vertex="1" parent="1">
          <mxGeometry x="387" y="113" width="111" height="111" as="geometry" />
        </mxCell>
        <mxCell id="7" value="HR" style="whiteSpace=wrap;strokeWidth=2;" vertex="1" parent="1">
          <mxGeometry x="783" y="195" width="80" height="49" as="geometry" />
        </mxCell>
        <mxCell id="8" value="Submits leave request" style="curved=1;startArrow=none;endArrow=block;exitX=1;exitY=0.1;entryX=0;entryY=0.5;" edge="1" parent="1" source="5" target="6">
          <mxGeometry relative="1" as="geometry">
            <Array as="points">
              <mxPoint x="269" y="168" />
            </Array>
          </mxGeometry>
        </mxCell>
        <mxCell id="9" value="Approves leave request" style="curved=1;startArrow=none;endArrow=block;exitX=1;exitY=0.5;entryX=0.11;entryY=-0.01;" edge="1" parent="1" source="6" target="7">
          <mxGeometry relative="1" as="geometry">
            <Array as="points">
              <mxPoint x="758" y="168" />
            </Array>
          </mxGeometry>
        </mxCell>
        <mxCell id="10" value="Notifies employee" style="curved=1;startArrow=none;endArrow=block;exitX=0.11;exitY=0.99;entryX=1;entryY=0.89;" edge="1" parent="1" source="7" target="5">
          <mxGeometry relative="1" as="geometry">
            <Array as="points">
              <mxPoint x="758" y="270" />
              <mxPoint x="269" y="270" />
            </Array>
          </mxGeometry>
        </mxCell>
      </root>
    </mxGraphModel>
  </diagram>
</mxfile>
